# xmcd
#
# Track frame offsets: 
#        150
#        16869
#        33570
#        56761
#        75374
#        92064
#        109096
#        125193
#        148177
#        163437
#        184562
#        205390
#        225586
#
# Disc length: 3213 seconds
#
# Revision: 0
# Processed by: cddbd v1.5.2PL0 Copyright (c) Steve Scherf et al.
# Submitted via: ExactAudioCopy v0.99pb4
#
DISCID=b30c8b0d
DTITLE=Moss_Ian - Soul_On_West_53rd
DYEAR=2009
DGENRE=Soul
TTITLE0=Shake
TTITLE1=Work To Do
TTITLE2=(I've Got To Use My) Imagination
TTITLE3=Any Day Now
TTITLE4=(Ain't That) Good News
TTITLE5=Stop On Bye
TTITLE6=Good Times
TTITLE7=Hummingbird
TTITLE8=Standing In The Shadows Of Love
TTITLE9=Use Me
TTITLE10=I Wrote A Simple Song
TTITLE11=Let's Stay Together
TTITLE12=What Becomes Of The Broken Hearted (With Jimmy Barnes and Joan 
TTITLE12=Osborne)
EXTD=
EXTT0=
EXTT1=
EXTT2=
EXTT3=
EXTT4=
EXTT5=
EXTT6=
EXTT7=
EXTT8=
EXTT9=
EXTT10=
EXTT11=
EXTT12=
PLAYORDER=
